<svg version="1.1" xmlns="http://www.w3.org/2000/svg" xmlns:xlink="http://www.w3.org/1999/xlink" width="740.17626953125" height="447"><defs/><g><g transform="translate(-54,-46) scale(1,1)"><rect fill="#C0C0C0" stroke="none" x="223" y="239" width="103.64990234375" height="117" opacity="0.2"/></g><g transform="translate(-54,-46) scale(1,1)"><rect fill="#ffffff" stroke="none" x="216" y="232" width="103.64990234375" height="117"/></g><g transform="translate(-54,-46) scale(1,1)"><path fill="none" stroke="#000000" d="M 216 232 L 319.64990234375 232 L 319.64990234375 349 L 216 349 L 216 232 Z Z" stroke-miterlimit="10"/></g><g transform="translate(-54,-46) scale(1,1)"><path fill="none" stroke="#000000" d="M 216 257 L 319.64990234375 257" stroke-miterlimit="10"/></g><g transform="translate(-54,-46) scale(1,1)"><path fill="none" stroke="#000000" d="M 216 340 L 319.64990234375 340" stroke-miterlimit="10"/></g><g transform="translate(-54,-46) scale(1,1)"><g><path fill="none" stroke="none"/><text fill="#000000" stroke="none" font-family="Arial" font-size="13px" font-style="normal" font-weight="bold" text-decoration="none" x="254.101318359375" y="251.5">User</text></g></g><g transform="translate(-54,-46) scale(1,1)"><g><path fill="none" stroke="none"/><text fill="#000000" stroke="none" font-family="Arial" font-size="13px" font-style="normal" font-weight="normal" text-decoration="none" x="221" y="274.5">-Username</text></g></g><g transform="translate(-54,-46) scale(1,1)"><g><path fill="none" stroke="none"/><text fill="#000000" stroke="none" font-family="Arial" font-size="13px" font-style="normal" font-weight="normal" text-decoration="none" x="221" y="289.5">-Password</text></g></g><g transform="translate(-54,-46) scale(1,1)"><g><path fill="none" stroke="none"/><text fill="#000000" stroke="none" font-family="Arial" font-size="13px" font-style="normal" font-weight="normal" text-decoration="none" x="221" y="304.5">-Name</text></g></g><g transform="translate(-54,-46) scale(1,1)"><g><path fill="none" stroke="none"/><text fill="#000000" stroke="none" font-family="Arial" font-size="13px" font-style="normal" font-weight="normal" text-decoration="none" x="221" y="319.5">-registerDate</text></g></g><g transform="translate(-54,-46) scale(1,1)"><g><path fill="none" stroke="none"/><text fill="#000000" stroke="none" font-family="Arial" font-size="13px" font-style="normal" font-weight="normal" text-decoration="none" x="221" y="334.5">-Reputation</text></g></g><g transform="translate(-54,-46) scale(1,1)"><rect fill="#C0C0C0" stroke="none" x="71" y="263" width="75.4599609375" height="72" opacity="0.2"/></g><g transform="translate(-54,-46) scale(1,1)"><rect fill="#ffffff" stroke="none" x="64" y="256" width="75.4599609375" height="72"/></g><g transform="translate(-54,-46) scale(1,1)"><path fill="none" stroke="#000000" d="M 64 256 L 139.4599609375 256 L 139.4599609375 328 L 64 328 L 64 256 Z Z" stroke-miterlimit="10"/></g><g transform="translate(-54,-46) scale(1,1)"><path fill="none" stroke="#000000" d="M 64 281 L 139.4599609375 281" stroke-miterlimit="10"/></g><g transform="translate(-54,-46) scale(1,1)"><path fill="none" stroke="#000000" d="M 64 319 L 139.4599609375 319" stroke-miterlimit="10"/></g><g transform="translate(-54,-46) scale(1,1)"><g><path fill="none" stroke="none"/><text fill="#000000" stroke="none" font-family="Arial" font-size="13px" font-style="normal" font-weight="bold" text-decoration="none" x="82.9345703125" y="275.5">Badge</text></g></g><g transform="translate(-54,-46) scale(1,1)"><g><path fill="none" stroke="none"/><text fill="#000000" stroke="none" font-family="Arial" font-size="13px" font-style="normal" font-weight="normal" text-decoration="none" x="69" y="298.5">-Name</text></g></g><g transform="translate(-54,-46) scale(1,1)"><g><path fill="none" stroke="none"/><text fill="#000000" stroke="none" font-family="Arial" font-size="13px" font-style="normal" font-weight="normal" text-decoration="none" x="69" y="313.5">-Rank</text></g></g><g transform="translate(-54,-46) scale(1,1)"><rect fill="#C0C0C0" stroke="none" x="231" y="103" width="82" height="57" opacity="0.2"/></g><g transform="translate(-54,-46) scale(1,1)"><rect fill="#ffffff" stroke="none" x="224" y="96" width="82" height="57"/></g><g transform="translate(-54,-46) scale(1,1)"><path fill="none" stroke="#000000" d="M 224 96 L 306 96 L 306 153 L 224 153 L 224 96 Z Z" stroke-miterlimit="10"/></g><g transform="translate(-54,-46) scale(1,1)"><path fill="none" stroke="#000000" d="M 224 121 L 306 121" stroke-miterlimit="10"/></g><g transform="translate(-54,-46) scale(1,1)"><path fill="none" stroke="#000000" d="M 224 144 L 306 144" stroke-miterlimit="10"/></g><g transform="translate(-54,-46) scale(1,1)"><g><path fill="none" stroke="none"/><text fill="#000000" stroke="none" font-family="Arial" font-size="13px" font-style="normal" font-weight="bold" text-decoration="none" x="251.628662109375" y="115.5">Vote</text></g></g><g transform="translate(-54,-46) scale(1,1)"><g><path fill="none" stroke="none"/><text fill="#000000" stroke="none" font-family="Arial" font-size="13px" font-style="normal" font-weight="normal" text-decoration="none" x="229" y="138.5">-Value  state</text></g></g><g transform="translate(-54,-46) scale(1,1)"><rect fill="#C0C0C0" stroke="none" x="559" y="63" width="91" height="102" opacity="0.2"/></g><g transform="translate(-54,-46) scale(1,1)"><rect fill="#ffffff" stroke="none" x="552" y="56" width="91" height="102"/></g><g transform="translate(-54,-46) scale(1,1)"><path fill="none" stroke="#000000" d="M 552 56 L 643 56 L 643 158 L 552 158 L 552 56 Z Z" stroke-miterlimit="10"/></g><g transform="translate(-54,-46) scale(1,1)"><path fill="none" stroke="#000000" d="M 552 81 L 643 81" stroke-miterlimit="10"/></g><g transform="translate(-54,-46) scale(1,1)"><path fill="none" stroke="#000000" d="M 552 134 L 643 134" stroke-miterlimit="10"/></g><g transform="translate(-54,-46) scale(1,1)"><g><path fill="none" stroke="none"/><text fill="#000000" stroke="none" font-family="Arial" font-size="13px" font-style="normal" font-weight="bold" text-decoration="none" x="584.49365234375" y="75.5">Post</text></g></g><g transform="translate(-54,-46) scale(1,1)"><g><path fill="none" stroke="none"/><text fill="#000000" stroke="none" font-family="Arial" font-size="13px" font-style="normal" font-weight="normal" text-decoration="none" x="557" y="98.5">-Message</text></g></g><g transform="translate(-54,-46) scale(1,1)"><g><path fill="none" stroke="none"/><text fill="#000000" stroke="none" font-family="Arial" font-size="13px" font-style="normal" font-weight="normal" text-decoration="none" x="557" y="113.5">-PostDate</text></g></g><g transform="translate(-54,-46) scale(1,1)"><g><path fill="none" stroke="none"/><text fill="#000000" stroke="none" font-family="Arial" font-size="13px" font-style="normal" font-weight="normal" text-decoration="none" x="557" y="128.5">-LastModified</text></g></g><g transform="translate(-54,-46) scale(1,1)"><rect fill="#C0C0C0" stroke="none" x="543" y="415" width="125.34619140625" height="75" opacity="0.2"/></g><g transform="translate(-54,-46) scale(1,1)"><rect fill="#ffffff" stroke="none" x="536" y="408" width="125.34619140625" height="75"/></g><g transform="translate(-54,-46) scale(1,1)"><path fill="none" stroke="#000000" d="M 536 408 L 661.34619140625 408 L 661.34619140625 483 L 536 483 L 536 408 Z Z" stroke-miterlimit="10"/></g><g transform="translate(-54,-46) scale(1,1)"><path fill="none" stroke="#000000" d="M 536 446 L 661.34619140625 446" stroke-miterlimit="10"/></g><g transform="translate(-54,-46) scale(1,1)"><g><path fill="none" stroke="none"/><text fill="#000000" stroke="none" font-family="Arial" font-size="13px" font-style="normal" font-weight="normal" text-decoration="none" x="555.30908203125" y="425.5">«enumeration»</text></g></g><g transform="translate(-54,-46) scale(1,1)"><g><path fill="none" stroke="none"/><text fill="#000000" stroke="none" font-family="Arial" font-size="13px" font-style="normal" font-weight="bold" text-decoration="none" x="570.84814453125" y="440.5">TagValue</text></g></g><g transform="translate(-54,-46) scale(1,1)"><g><path fill="none" stroke="none"/><text fill="#000000" stroke="none" font-family="Arial" font-size="13px" font-style="normal" font-weight="normal" text-decoration="none" x="541" y="463.5">UP</text></g></g><g transform="translate(-54,-46) scale(1,1)"><g><path fill="none" stroke="none"/><text fill="#000000" stroke="none" font-family="Arial" font-size="13px" font-style="normal" font-weight="normal" text-decoration="none" x="541" y="478.5">DOWN</text></g></g><g transform="translate(-54,-46) scale(1,1)"><rect fill="#C0C0C0" stroke="none" x="71" y="151" width="125.34619140625" height="90" opacity="0.2"/></g><g transform="translate(-54,-46) scale(1,1)"><rect fill="#ffffff" stroke="none" x="64" y="144" width="125.34619140625" height="90"/></g><g transform="translate(-54,-46) scale(1,1)"><path fill="none" stroke="#000000" d="M 64 144 L 189.34619140625 144 L 189.34619140625 234 L 64 234 L 64 144 Z Z" stroke-miterlimit="10"/></g><g transform="translate(-54,-46) scale(1,1)"><path fill="none" stroke="#000000" d="M 64 182 L 189.34619140625 182" stroke-miterlimit="10"/></g><g transform="translate(-54,-46) scale(1,1)"><g><path fill="none" stroke="none"/><text fill="#000000" stroke="none" font-family="Arial" font-size="13px" font-style="normal" font-weight="normal" text-decoration="none" x="83.30908203125" y="161.5">«enumeration»</text></g></g><g transform="translate(-54,-46) scale(1,1)"><g><path fill="none" stroke="none"/><text fill="#000000" stroke="none" font-family="Arial" font-size="13px" font-style="normal" font-weight="bold" text-decoration="none" x="90.897705078125" y="176.5">Badge Rank</text></g></g><g transform="translate(-54,-46) scale(1,1)"><g><path fill="none" stroke="none"/><text fill="#000000" stroke="none" font-family="Arial" font-size="13px" font-style="normal" font-weight="normal" text-decoration="none" x="69" y="199.5">Gold</text></g></g><g transform="translate(-54,-46) scale(1,1)"><g><path fill="none" stroke="none"/><text fill="#000000" stroke="none" font-family="Arial" font-size="13px" font-style="normal" font-weight="normal" text-decoration="none" x="69" y="214.5">Silver</text></g></g><g transform="translate(-54,-46) scale(1,1)"><g><path fill="none" stroke="none"/><text fill="#000000" stroke="none" font-family="Arial" font-size="13px" font-style="normal" font-weight="normal" text-decoration="none" x="69" y="229.5">Bronze</text></g></g><g transform="translate(-54,-46) scale(1,1)"><rect fill="#C0C0C0" stroke="none" x="575" y="223" width="63.18994140625" height="44" opacity="0.2"/></g><g transform="translate(-54,-46) scale(1,1)"><rect fill="#ffffff" stroke="none" x="568" y="216" width="63.18994140625" height="44"/></g><g transform="translate(-54,-46) scale(1,1)"><path fill="none" stroke="#000000" d="M 568 216 L 631.18994140625 216 L 631.18994140625 260 L 568 260 L 568 216 Z Z" stroke-miterlimit="10"/></g><g transform="translate(-54,-46) scale(1,1)"><path fill="none" stroke="#000000" d="M 568 241 L 631.18994140625 241" stroke-miterlimit="10"/></g><g transform="translate(-54,-46) scale(1,1)"><path fill="none" stroke="#000000" d="M 568 251 L 631.18994140625 251" stroke-miterlimit="10"/></g><g transform="translate(-54,-46) scale(1,1)"><g><path fill="none" stroke="none"/><text fill="#000000" stroke="none" font-family="Arial" font-size="13px" font-style="normal" font-weight="bold" text-decoration="none" x="577.9208984375" y="235.5">Answer</text></g></g><g transform="translate(-54,-46) scale(1,1)"><rect fill="#C0C0C0" stroke="none" x="711" y="255" width="80.17626953125" height="87" opacity="0.2"/></g><g transform="translate(-54,-46) scale(1,1)"><rect fill="#ffffff" stroke="none" x="704" y="248" width="80.17626953125" height="87"/></g><g transform="translate(-54,-46) scale(1,1)"><path fill="none" stroke="#000000" d="M 704 248 L 784.17626953125 248 L 784.17626953125 335 L 704 335 L 704 248 Z Z" stroke-miterlimit="10"/></g><g transform="translate(-54,-46) scale(1,1)"><path fill="none" stroke="#000000" d="M 704 273 L 784.17626953125 273" stroke-miterlimit="10"/></g><g transform="translate(-54,-46) scale(1,1)"><path fill="none" stroke="#000000" d="M 704 326 L 784.17626953125 326" stroke-miterlimit="10"/></g><g transform="translate(-54,-46) scale(1,1)"><g><path fill="none" stroke="none"/><text fill="#000000" stroke="none" font-family="Arial" font-size="13px" font-style="normal" font-weight="bold" text-decoration="none" x="718.072265625" y="267.5">Question</text></g></g><g transform="translate(-54,-46) scale(1,1)"><g><path fill="none" stroke="none"/><text fill="#000000" stroke="none" font-family="Arial" font-size="13px" font-style="normal" font-weight="normal" text-decoration="none" x="709" y="290.5">-Title</text></g></g><g transform="translate(-54,-46) scale(1,1)"><g><path fill="none" stroke="none"/><text fill="#000000" stroke="none" font-family="Arial" font-size="13px" font-style="normal" font-weight="normal" text-decoration="none" x="709" y="305.5">-NbViews</text></g></g><g transform="translate(-54,-46) scale(1,1)"><g><path fill="none" stroke="none"/><text fill="#000000" stroke="none" font-family="Arial" font-size="13px" font-style="normal" font-weight="normal" text-decoration="none" x="709" y="320.5">-isResolved</text></g></g><g transform="translate(-54,-46) scale(1,1)"><rect fill="#C0C0C0" stroke="none" x="439" y="167" width="76.17724609375" height="44" opacity="0.2"/></g><g transform="translate(-54,-46) scale(1,1)"><rect fill="#ffffff" stroke="none" x="432" y="160" width="76.17724609375" height="44"/></g><g transform="translate(-54,-46) scale(1,1)"><path fill="none" stroke="#000000" d="M 432 160 L 508.17724609375 160 L 508.17724609375 204 L 432 204 L 432 160 Z Z" stroke-miterlimit="10"/></g><g transform="translate(-54,-46) scale(1,1)"><path fill="none" stroke="#000000" d="M 432 185 L 508.17724609375 185" stroke-miterlimit="10"/></g><g transform="translate(-54,-46) scale(1,1)"><path fill="none" stroke="#000000" d="M 432 195 L 508.17724609375 195" stroke-miterlimit="10"/></g><g transform="translate(-54,-46) scale(1,1)"><g><path fill="none" stroke="none"/><text fill="#000000" stroke="none" font-family="Arial" font-size="13px" font-style="normal" font-weight="bold" text-decoration="none" x="441.91455078125" y="179.5">Comment</text></g></g><g transform="translate(-54,-46) scale(1,1)"><path fill="none" stroke="#000000" d="M 265 154 L 266 231" stroke-miterlimit="10"/></g><g transform="translate(-54,-46) scale(1,1)"><path fill="#FFFFFF" stroke="none" d="M 261.6588655314999 220.8928465171246 L 266 231 L 270.0771911455153 220.78351761304648 L 265.714309805882 209.00185505291446"/></g><g transform="translate(-54,-46) scale(1,1)"><path fill="none" stroke="#000000" d="M 261.6588655314999 220.8928465171246 L 266 231 L 270.0771911455153 220.78351761304648 L 265.714309805882 209.00185505291446 L 261.6588655314999 220.8928465171246" stroke-miterlimit="10"/></g><g transform="translate(-54,-46) scale(1,1)"><g><path fill="none" stroke="none"/><text fill="#000000" stroke="none" font-family="Arial" font-size="13px" font-style="normal" font-weight="normal" text-decoration="none" x="271.299560546875" y="188.5">-votes</text></g></g><g transform="translate(-54,-46) scale(1,1)"><path fill="none" stroke="#000000" d="M 703 291 L 321 290" stroke-miterlimit="10"/></g><g transform="translate(-54,-46) scale(1,1)"><path fill="#FFFFFF" stroke="none" d="M 331.1736596782272 285.81710043730254 L 321 290 L 331.15162039376423 294.23610710215297 L 342.9999246186819 290.0575914257034"/></g><g transform="translate(-54,-46) scale(1,1)"><path fill="none" stroke="#000000" d="M 331.1736596782272 285.81710043730254 L 321 290 L 331.15162039376423 294.23610710215297 L 342.9999246186819 290.0575914257034 L 331.1736596782272 285.81710043730254" stroke-miterlimit="10"/></g><g transform="translate(-54,-46) scale(1,1)"><g><path fill="none" stroke="none"/><text fill="#000000" stroke="none" font-family="Arial" font-size="13px" font-style="normal" font-weight="normal" text-decoration="none" x="481.13134765625" y="311.5">-questions</text></g></g><g transform="translate(-54,-46) scale(1,1)"><path fill="none" stroke="#000000" d="M 431 203 L 321 261" stroke-miterlimit="10"/></g><g transform="translate(-54,-46) scale(1,1)"><path fill="#FFFFFF" stroke="none" d="M 328.02623050801384 252.53642600030838 L 321 261 L 331.95294580665245 259.9836446701403 L 340.4605202106765 250.73899843437056"/></g><g transform="translate(-54,-46) scale(1,1)"><path fill="none" stroke="#000000" d="M 328.02623050801384 252.53642600030838 L 321 261 L 331.95294580665245 259.9836446701403 L 340.4605202106765 250.73899843437056 L 328.02623050801384 252.53642600030838" stroke-miterlimit="10"/></g><g transform="translate(-54,-46) scale(1,1)"><g><path fill="none" stroke="none"/><text fill="#000000" stroke="none" font-family="Arial" font-size="13px" font-style="normal" font-weight="normal" text-decoration="none" x="397.5" y="228.5">-comments</text></g></g><g transform="translate(-54,-46) scale(1,1)"><path fill="none" stroke="#000000" d="M 567 242 L 440 256 L 321 279" stroke-miterlimit="10"/></g><g transform="translate(-54,-46) scale(1,1)"><path fill="#FFFFFF" stroke="none" d="M 330.17919301827175 272.938447762057 L 321 279 L 331.7768343210061 281.20450493707415 L 342.6002483408561 274.8251620853807"/></g><g transform="translate(-54,-46) scale(1,1)"><path fill="none" stroke="#000000" d="M 330.17919301827175 272.938447762057 L 321 279 L 331.7768343210061 281.20450493707415 L 342.6002483408561 274.8251620853807 L 330.17919301827175 272.938447762057" stroke-miterlimit="10"/></g><g transform="translate(-54,-46) scale(1,1)"><g><path fill="none" stroke="none"/><text fill="#000000" stroke="none" font-family="Arial" font-size="13px" font-style="normal" font-weight="normal" text-decoration="none" x="416.13134765625" y="276.5">-answers</text></g></g><g transform="translate(-54,-46) scale(1,1)"><path fill="none" stroke="#000000" d="M 551 117 L 392 152 L 320 231" stroke-miterlimit="10"/></g><g transform="translate(-54,-46) scale(1,1)"><path fill="#FFFFFF" stroke="none" d="M 323.73438987679094 220.65329365217502 L 320 231 L 329.9568386269662 226.32438618398032 L 334.8192789448876 214.7399578243594"/></g><g transform="translate(-54,-46) scale(1,1)"><path fill="none" stroke="#000000" d="M 323.73438987679094 220.65329365217502 L 320 231 L 329.9568386269662 226.32438618398032 L 334.8192789448876 214.7399578243594 L 323.73438987679094 220.65329365217502" stroke-miterlimit="10"/></g><g transform="translate(-54,-46) scale(1,1)"><path fill="none" stroke="#000000" d="M 632 250 L 703 276" stroke-miterlimit="10"/></g><g transform="translate(-54,-46) scale(1,1)"><path fill="#FFFFFF" stroke="none" d="M 692.0095479300131 276.45821752184077 L 703 276 L 694.9045680960545 268.55258552995866 L 682.34158805093 268.4349477369603"/></g><g transform="translate(-54,-46) scale(1,1)"><path fill="none" stroke="#000000" d="M 692.0095479300131 276.45821752184077 L 703 276 L 694.9045680960545 268.55258552995866 L 682.34158805093 268.4349477369603 L 692.0095479300131 276.45821752184077" stroke-miterlimit="10"/></g><g transform="translate(-54,-46) scale(1,1)"><g><path fill="none" stroke="none"/><text fill="#000000" stroke="none" font-family="Arial" font-size="13px" font-style="normal" font-weight="normal" text-decoration="none" x="645.5" y="254.5">-answers</text></g></g><g transform="translate(-54,-46) scale(1,1)"><path fill="none" stroke="#000000" d="M 509 199 L 567 224" stroke-miterlimit="10"/></g><g transform="translate(-54,-46) scale(1,1)"><path fill="#FFFFFF" stroke="none" d="M 556.0011202293767 223.84301658885957 L 567 224 L 559.3336215632879 216.11161349418552 L 546.7968700999365 215.29175435342094"/></g><g transform="translate(-54,-46) scale(1,1)"><path fill="none" stroke="#000000" d="M 556.0011202293767 223.84301658885957 L 567 224 L 559.3336215632879 216.11161349418552 L 546.7968700999365 215.29175435342094 L 556.0011202293767 223.84301658885957" stroke-miterlimit="10"/></g><g transform="translate(-54,-46) scale(1,1)"><g><path fill="none" stroke="none"/><text fill="#000000" stroke="none" font-family="Arial" font-size="13px" font-style="normal" font-weight="normal" text-decoration="none" x="518.5" y="204.5">-comments</text></g></g><g transform="translate(-54,-46) scale(1,1)"><path fill="none" stroke="#000000" d="M 509 159 L 551 134" stroke-miterlimit="10"/></g><g transform="translate(-54,-46) scale(1,1)"><path fill="#FFFFFF" stroke="none" d="M 537.8407723957636 151.63050563256488 L 551 134 L 529.2283708373329 137.16167101440146"/></g><g transform="translate(-54,-46) scale(1,1)"><path fill="none" stroke="#000000" d="M 537.8407723957636 151.63050563256488 L 551 134 L 529.2283708373329 137.16167101440146 L 537.8407723957636 151.63050563256488" stroke-miterlimit="10"/></g><g transform="translate(-54,-46) scale(1,1)"><path fill="none" stroke="#000000" d="M 599 215 L 598 159" stroke-miterlimit="10"/></g><g transform="translate(-54,-46) scale(1,1)"><path fill="#FFFFFF" stroke="none" d="M 606.7805883308534 179.17179388562354 L 598 159 L 589.9452013063323 179.47242579677572"/></g><g transform="translate(-54,-46) scale(1,1)"><path fill="none" stroke="#000000" d="M 606.7805883308534 179.17179388562354 L 598 159 L 589.9452013063323 179.47242579677572 L 606.7805883308534 179.17179388562354" stroke-miterlimit="10"/></g><g transform="translate(-54,-46) scale(1,1)"><path fill="none" stroke="#000000" d="M 739 247 L 728 160 L 644 126" stroke-miterlimit="10"/></g><g transform="translate(-54,-46) scale(1,1)"><path fill="#FFFFFF" stroke="none" d="M 665.9992792974085 125.82192587326475 L 644 126 L 659.6817569949827 141.42992214984602"/></g><g transform="translate(-54,-46) scale(1,1)"><path fill="none" stroke="#000000" d="M 665.9992792974085 125.82192587326475 L 644 126 L 659.6817569949827 141.42992214984602 L 665.9992792974085 125.82192587326475" stroke-miterlimit="10"/></g><g transform="translate(-54,-46) scale(1,1)"><rect fill="#C0C0C0" stroke="none" x="119" y="391" width="124.603515625" height="57" opacity="0.2"/></g><g transform="translate(-54,-46) scale(1,1)"><rect fill="#ffffff" stroke="none" x="112" y="384" width="124.603515625" height="57"/></g><g transform="translate(-54,-46) scale(1,1)"><path fill="none" stroke="#000000" d="M 112 384 L 236.603515625 384 L 236.603515625 441 L 112 441 L 112 384 Z Z" stroke-miterlimit="10"/></g><g transform="translate(-54,-46) scale(1,1)"><path fill="none" stroke="#000000" d="M 112 409 L 236.603515625 409" stroke-miterlimit="10"/></g><g transform="translate(-54,-46) scale(1,1)"><path fill="none" stroke="#000000" d="M 112 432 L 236.603515625 432" stroke-miterlimit="10"/></g><g transform="translate(-54,-46) scale(1,1)"><g><path fill="none" stroke="none"/><text fill="#000000" stroke="none" font-family="Arial" font-size="13px" font-style="normal" font-weight="bold" text-decoration="none" x="138.53271484375" y="403.5">UserBadges</text></g></g><g transform="translate(-54,-46) scale(1,1)"><g><path fill="none" stroke="none"/><text fill="#000000" stroke="none" font-family="Arial" font-size="13px" font-style="normal" font-weight="normal" text-decoration="none" x="117" y="426.5">-dateEarned</text></g></g><g transform="translate(-54,-46) scale(1,1)"><path fill="none" stroke="#000000" d="M 140 292 L 215 291" stroke-miterlimit="10"/></g><g transform="translate(-54,-46) scale(1,1)"><path fill="none" stroke="#000000" d="M 175 383 L 177 291" stroke-miterlimit="10" stroke-dasharray="3"/></g><g transform="translate(-54,-46) scale(1,1)"><rect fill="#C0C0C0" stroke="none" x="567" y="343" width="72.2353515625" height="57" opacity="0.2"/></g><g transform="translate(-54,-46) scale(1,1)"><rect fill="#ffffff" stroke="none" x="560" y="336" width="72.2353515625" height="57"/></g><g transform="translate(-54,-46) scale(1,1)"><path fill="none" stroke="#000000" d="M 560 336 L 632.2353515625 336 L 632.2353515625 393 L 560 393 L 560 336 Z Z" stroke-miterlimit="10"/></g><g transform="translate(-54,-46) scale(1,1)"><path fill="none" stroke="#000000" d="M 560 361 L 632.2353515625 361" stroke-miterlimit="10"/></g><g transform="translate(-54,-46) scale(1,1)"><path fill="none" stroke="#000000" d="M 560 384 L 632.2353515625 384" stroke-miterlimit="10"/></g><g transform="translate(-54,-46) scale(1,1)"><g><path fill="none" stroke="none"/><text fill="#000000" stroke="none" font-family="Arial" font-size="13px" font-style="normal" font-weight="bold" text-decoration="none" x="584.917236328125" y="355.5">Tag</text></g></g><g transform="translate(-54,-46) scale(1,1)"><g><path fill="none" stroke="none"/><text fill="#000000" stroke="none" font-family="Arial" font-size="13px" font-style="normal" font-weight="normal" text-decoration="none" x="565" y="378.5">-TagVal</text></g></g><g transform="translate(-54,-46) scale(1,1)"><path fill="none" stroke="#000000" d="M 633 346 L 703 311" stroke-miterlimit="10"/></g><g transform="translate(-54,-46) scale(1,1)"><path fill="#FFFFFF" stroke="none" d="M 695.7927808450386 319.3099935049528 L 703 311 L 692.0276737030609 311.77977922099745 L 683.3226017980019 320.83869910099907"/></g><g transform="translate(-54,-46) scale(1,1)"><path fill="none" stroke="#000000" d="M 695.7927808450386 319.3099935049528 L 703 311 L 692.0276737030609 311.77977922099745 L 683.3226017980019 320.83869910099907 L 695.7927808450386 319.3099935049528" stroke-miterlimit="10"/></g><g transform="translate(-54,-46) scale(1,1)"><g><path fill="none" stroke="none"/><text fill="#000000" stroke="none" font-family="Arial" font-size="13px" font-style="normal" font-weight="normal" text-decoration="none" x="646.049560546875" y="320.5">-tags</text></g></g><g transform="translate(-54,-46) scale(1,1)"><path fill="none" stroke="#000000" d="M 307 122 L 551 109" stroke-miterlimit="10"/></g><g transform="translate(-54,-46) scale(1,1)"><path fill="#FFFFFF" stroke="none" d="M 541.0756784280853 113.74424296776945 L 551 109 L 540.6277585437168 105.33713129192961 L 529.0311584855358 110.17047106429523"/></g><g transform="translate(-54,-46) scale(1,1)"><path fill="none" stroke="#000000" d="M 541.0756784280853 113.74424296776945 L 551 109 L 540.6277585437168 105.33713129192961 L 529.0311584855358 110.17047106429523 L 541.0756784280853 113.74424296776945" stroke-miterlimit="10"/></g><g transform="translate(-54,-46) scale(1,1)"><g><path fill="none" stroke="none"/><text fill="#000000" stroke="none" font-family="Arial" font-size="13px" font-style="normal" font-weight="normal" text-decoration="none" x="410.13134765625" y="106.5">-votes</text></g></g></g></svg>